<?xml version="1.0" standalone="no"?>
<!DOCTYPE svg PUBLIC "-//W3C//DTD SVG 20010904//EN"
 "http://www.w3.org/TR/2001/REC-SVG-20010904/DTD/svg10.dtd">
<svg version="1.0" xmlns="http://www.w3.org/2000/svg"
 width="669.000000pt" height="669.000000pt" viewBox="0 0 669.000000 669.000000"
 preserveAspectRatio="xMidYMid meet">
<metadata>
Created by potrace 1.14, written by Peter Selinger 2001-2017
</metadata>
<g transform="translate(0.000000,669.000000) scale(0.100000,-0.100000)"
fill="#000000" stroke="none">
<path d="M2067 5916 c-151 -149 -456 -449 -677 -666 -221 -217 -402 -396 -404
-398 -2 -1 -3 287 -4 640 0 354 -1 653 -1 665 l-1 22 -445 1 -445 0 0 -2905 0
-2905 445 0 c349 0 445 3 446 13 0 6 1 368 2 803 l2 791 187 184 c102 101 394
389 648 639 254 250 593 584 753 741 l290 287 -127 123 c-70 68 -177 172 -237
230 l-109 107 -166 -162 c-91 -88 -215 -208 -274 -266 -59 -58 -232 -226 -385
-375 -152 -148 -328 -319 -390 -380 -62 -60 -131 -127 -152 -148 l-40 -38 0
456 0 455 922 924 922 923 -48 53 c-112 122 -226 246 -258 279 -18 20 -60 66
-93 103 -33 37 -65 69 -72 71 -7 3 -137 -117 -289 -267z"/>
<path d="M3690 3275 l0 -2905 448 2 447 3 0 583 0 584 176 111 c96 62 183 117
192 122 15 9 132 84 297 190 162 104 257 165 572 366 186 117 356 225 378 239
22 14 123 78 224 143 l184 117 -1 436 -2 436 -47 26 c-52 30 -987 594 -1083
654 -33 20 -71 43 -85 51 -14 7 -187 112 -385 231 -198 120 -373 226 -390 235
l-30 18 0 629 0 629 -447 2 -448 3 0 -2905z m1855 211 c85 -47 445 -269 445
-274 0 -6 -168 -103 -429 -248 -31 -17 -72 -41 -91 -52 -19 -12 -42 -25 -50
-29 -8 -4 -58 -31 -110 -61 -52 -30 -115 -66 -140 -80 -25 -14 -163 -92 -307
-174 -143 -81 -265 -148 -270 -148 -6 0 -10 1596 -4 1632 0 4 211 -119 469
-274 257 -155 476 -286 487 -292z"/>
</g>
</svg>
